<mxfile host="65bd71144e">
    <diagram id="GwGcdAKrI81eXyLy9iIg" name="Page-1">
        <mxGraphModel dx="1143" dy="697" grid="1" gridSize="10" guides="1" tooltips="1" connect="1" arrows="1" fold="1" page="1" pageScale="1" pageWidth="400" pageHeight="400" background="none" math="0" shadow="0">
            <root>
                <mxCell id="0"/>
                <mxCell id="1" parent="0"/>
                <mxCell id="2" value="&lt;b&gt;&lt;font style=&quot;line-height: 120% ; font-size: 100px ; background-color: rgb(51 , 51 , 51)&quot; face=&quot;Tahoma&quot; color=&quot;#66ff66&quot;&gt;ISU&lt;/font&gt;&lt;/b&gt;" style="ellipse;whiteSpace=wrap;html=1;gradientDirection=south;strokeWidth=11;shadow=0;sketch=0;align=center;fontSize=5;fillColor=#333333;strokeColor=#0066CC;" parent="1" vertex="1">
                    <mxGeometry x="-389" y="18" width="378" height="363" as="geometry"/>
                </mxCell>
            </root>
        </mxGraphModel>
    </diagram>
</mxfile>